#!OML:ASF F:\VICON\USERDATA\INSTALL\rory3\rory3.ASF
:FULLY-SPECIFIED
:DEGREES
248
root -0.848278 20.2844 9.76866 -165.786 5.90193 178.682
lowerback 9.2761 1.13643 -6.4291
upperback 1.00122 0.952797 0.0448859
thorax -4.2641 0.623727 3.54116
lowerneck -17.0905 -1.67186 -6.98478
upperneck 39.9448 4.82188 0.415978
head 17.5224 2.28667 2.79752
rclavicle -2.48481e-015 1.45113e-014
rhumerus -23.8917 -2.64547 -79.5673
rradius 42.5806
rwrist 18.0117
rhand -19.7424 2.37336
rfingers 7.12502
rthumb 6.58851 -27.5041
lclavicle -2.48481e-015 1.45113e-014
lhumerus -29.6232 4.32209 80.4286
lradius 35.915
lwrist -6.3183
lhand -9.56412 25.5464
lfingers 7.12502
lthumb 16.4034 54.8729
rfemur -35.7007 -6.36077 19.1237
rtibia 64.3356
rfoot -11.4274 -6.71649
rtoes -0.827845
lfemur -40.0312 3.47597 -28.1931
ltibia 51.126
lfoot -21.0439 -3.01443
ltoes -3.46142
249
root -0.86803 20.3818 9.72686 -165.785 5.93934 178.603
lowerback 9.24855 1.0112 -6.3674
upperback 1.02408 0.795356 -0.00344871
thorax -4.20574 0.542933 3.47679
lowerneck -17.0465 -1.54932 -6.94324
upperneck 39.823 4.98609 0.324505
head 17.4384 2.34272 2.76935
rclavicle -1.59028e-014 5.56597e-015
rhumerus -23.8428 -2.82109 -79.5279
rradius 42.8796
rwrist 17.9871
rhand -19.7819 2.89857
rfingers 7.12502
rthumb 6.55033 -26.9801
lclavicle -1.59028e-014 5.56597e-015
lhumerus -29.4231 4.47232 80.2724
lradius 35.9128
lwrist -6.70537
lhand -9.83819 25.0197
lfingers 7.12502
lthumb 16.1395 54.3677
rfemur -37.2869 -6.71183 18.9449
rtibia 66.8644
rfoot -11.7087 -5.498
rtoes -2.99395
lfemur -38.9823 3.33147 -28.2917
ltibia 49.4391
lfoot -20.5688 -3.55675
ltoes -4.87827
250
root -0.881602 20.4716 9.6951 -165.76 6.06404 178.686
lowerback 9.39867 0.943417 -6.29869
upperback 0.959502 0.69732 0.024608
thorax -4.34655 0.498021 3.47889
lowerneck -17.0167 -1.51431 -6.95325
upperneck 39.9069 5.08009 0.307143
head 17.4748 2.37836 2.78509
rclavicle 3.57812e-015 2.28602e-015
rhumerus -23.9196 -2.90924 -79.4697
rradius 43.1925
rwrist 17.9528
rhand -19.9534 3.26373
rfingers 7.12502
rthumb 6.38483 -26.62
lclavicle 3.57812e-015 2.28602e-015
lhumerus -29.3157 4.51171 80.1464
lradius 35.9415
lwrist -6.60807
lhand -9.92519 24.7845
lfingers 7.12502
lthumb 16.0557 54.1393
rfemur -38.9087 -6.77968 18.9898
rtibia 69.3057
rfoot -12.0784 -4.50049
rtoes -4.95478
lfemur -38.0421 3.34156 -28.2115
ltibia 47.8028
lfoot -20.9387 -2.04358
ltoes -14.8414
251
root -0.893769 20.567 9.65906 -165.862 6.27384 178.765
lowerback 9.59601 0.932618 -6.31454
upperback 0.956756 0.669921 0.0758767
thorax -4.45763 0.488966 3.54394
lowerneck -17.0013 -1.50223 -6.98547
upperneck 40.0332 5.17675 0.270752
head 17.5406 2.41021 2.80017
rclavicle 6.16232e-015 -9.14409e-015
rhumerus -23.9844 -3.04849 -79.3415
rradius 43.4782
rwrist 17.7574
rhand -20.1915 3.46575
rfingers 7.12502
rthumb 6.15491 -26.4248
lclavicle 6.16232e-015 -9.14409e-015
lhumerus -29.222 4.59646 80.0696
lradius 35.9756
lwrist -6.49784
lhand -10.3424 24.7511
lfingers 7.12502
lthumb 15.6539 54.1378
rfemur -40.3336 -6.76295 19.0063
rtibia 71.599
rfoot -12.6113 -3.57181
rtoes -5.6467
lfemur -36.9582 3.46914 -28.172
ltibia 46.1696
lfoot -19.0775 -3.54303
ltoes -9.54952
252
root -0.907444 20.666 9.62048 -165.9 6.40463 178.759
lowerback 9.62852 0.862128 -6.34764
upperback 0.991398 0.574226 0.0849771
thorax -4.42926 0.441628 3.58507
lowerneck -17.0151 -1.46419 -7.00664
upperneck 40.1344 5.27216 0.283933
head 17.5964 2.44596 2.83387
rclavicle 1.44616e-014 -7.35503e-015
rhumerus -23.9405 -3.13223 -79.2558
rradius 43.6483
rwrist 17.5068
rhand -20.759 3.67129
rfingers 7.12502
rthumb 5.60701 -26.2345
lclavicle 1.44616e-014 -7.35503e-015
lhumerus -29.0646 4.82298 79.9244
lradius 36.0447
lwrist -6.30738
lhand -10.6055 25.0098
lfingers 7.12502
lthumb 15.4005 54.4162
rfemur -41.8436 -6.86284 18.963
rtibia 73.7761
rfoot -13.0898 -2.71527
rtoes -5.05087
lfemur -35.9463 3.53003 -28.2283
ltibia 44.5226
lfoot -18.0944 -3.34338
ltoes -9.37475
